<svg width="48" height="48" viewBox="0 0 48 48" fill="none" xmlns="http://www.w3.org/2000/svg">
<path d="M25 14.083C24.6748 14.0284 24.3408 14 24 14C20.6862 14 18 16.6863 18 20C18 23.3138 20.6862 26 24 26C27.3138 26 30 23.3138 30 20C30 19.6593 29.9716 19.3252 29.917 19" stroke="#F2A20C" stroke-width="5" stroke-linecap="round"/>
<path d="M10 30.4322C8.70508 27.1244 8 23.6026 8 20.2866C8 11.2918 15.1634 4 24 4C32.8366 4 40 11.2918 40 20.2866C40 29.211 34.8934 39.6248 26.9258 43.3488C25.0686 44.217 22.9314 44.217 21.0742 43.3488C18.5295 42.1594 16.2766 40.2878 14.3888 38" stroke="#F2A20C" stroke-width="5" stroke-linecap="round"/>
</svg>
